<svg fill="#fff" height="480pt" viewBox="0 0 480 480" width="480pt" xmlns="http://www.w3.org/2000/svg"><path d="m208 384h40v16h-40zm0 0"/><path d="m72 384h40v16h-40zm0 0"/><path d="m96 144h60.800781l27.199219 27.199219 27.199219-27.199219h60.800781c13.601562 0 24-10.398438 24-24v-96c0-13.601562-10.398438-24-24-24h-176c-13.601562 0-24 10.398438-24 24v96c0 13.601562 10.398438 24 24 24zm-8-120c0-4.800781 3.199219-8 8-8h176c4.800781 0 8 3.199219 8 8v96c0 4.800781-3.199219 8-8 8h-67.199219l-20.800781 20.800781-20.800781-20.800781h-67.199219c-4.800781 0-8-3.199219-8-8zm0 0"/><path d="m0 480h320v-296h-320zm16-160h112v16h-80v8c0 4.800781-3.199219 8-8 8h-8v80h8c4.800781 0 8 3.199219 8 8v8h80v16h-112zm176 32h65.601562c2.398438 7.199219 8 12 14.398438 14.398438v50.402343c-7.199219 2.398438-12 8-14.398438 14.398438h-65.601562zm0-48v-24h112v24zm0-40v-24h112v24zm-16 200h-32v-264h32zm-48-32h-65.601562c-2.398438-7.199219-8-12-14.398438-14.398438v-50.402343c7.199219-2.398438 12-8 14.398438-14.398438h65.601562zm0-192v24h-112v-24zm0 40v24h-112v-24zm64 184v-16h80v-8c0-4.800781 3.199219-8 8-8h8v-80h-8c-4.800781 0-8-3.199219-8-8v-8h-80v-16h112v144zm112-240h-112v-24h112zm-176-24v24h-112v-24zm0 0"/><path d="m408 24c-40 0-72 32-72 72 0 18.398438 7.199219 36 20 49.601562-12.800781 5.597657-20 13.597657-20 22.398438v280c0 20.800781 36 32 72 32s72-11.199219 72-32v-280c0-8.800781-7.199219-16.800781-20-22.398438 27.199219-28.800781 26.398438-74.402343-2.398438-101.601562-13.601562-12.800781-31.203124-20-49.601562-20zm0 16c31.199219 0 56 24.800781 56 56s-24.800781 56-56 56-56-24.800781-56-56 24.800781-56 56-56zm0 424c-36 0-56-11.199219-56-16v-19.199219c17.601562 8 36.800781 12 56 11.199219 19.199219.800781 38.398438-3.199219 56-11.199219v19.199219c0 4.800781-20 16-56 16zm0-40c-36 0-56-11.199219-56-16v-19.199219c17.601562 8 36.800781 12 56 11.199219 19.199219.800781 38.398438-3.199219 56-11.199219v19.199219c0 4.800781-20 16-56 16zm0-40c-36 0-56-11.199219-56-16v-19.199219c17.601562 8 36.800781 12 56 11.199219 19.199219.800781 38.398438-3.199219 56-11.199219v19.199219c0 4.800781-20 16-56 16zm0-40c-36 0-56-11.199219-56-16v-19.199219c17.601562 8 36.800781 12 56 11.199219 19.199219.800781 38.398438-3.199219 56-11.199219v19.199219c0 4.800781-20 16-56 16zm0-40c-36 0-56-11.199219-56-16v-19.199219c17.601562 8 36.800781 12 56 11.199219 19.199219.800781 38.398438-3.199219 56-11.199219v19.199219c0 4.800781-20 16-56 16zm0-40c-36 0-56-11.199219-56-16v-19.199219c17.601562 8 36.800781 12 56 11.199219 19.199219.800781 38.398438-3.199219 56-11.199219v19.199219c0 4.800781-20 16-56 16zm0-40c-36 0-56-11.199219-56-16v-19.199219c17.601562 8 36.800781 12 56 11.199219 19.199219.800781 38.398438-3.199219 56-11.199219v19.199219c0 4.800781-20 16-56 16zm56-56c0 4.800781-20 16-56 16s-56-11.199219-56-16c0-1.601562 4.800781-7.199219 17.601562-11.199219 23.199219 14.398438 52.796876 14.398438 76 0 13.597657 4 18.398438 9.597657 18.398438 11.199219zm0 0"/><path d="m184 59.199219 36.800781 36.800781h-20.800781v16h48v-48h-16v20.800781l-48-48-24 24-34.398438-34.402343-11.203124 11.203124 45.601562 45.597657zm0 0"/></svg>