<svg xmlns="http://www.w3.org/2000/svg" width="32" height="32" viewBox="0 0 32 32">
  <g id="Сгруппировать_28385" data-name="Сгруппировать 28385" transform="translate(20241 13120)">
    <g id="Сгруппировать_28382" data-name="Сгруппировать 28382" transform="translate(-20241 -13120)">
      <path id="Контур_11751" data-name="Контур 11751" d="M-3.742,0a16,16,0,0,0-16,16,16,16,0,0,0,16,16,16,16,0,0,0,16-16,16,16,0,0,0-16-16" transform="translate(19.742)" fill="#186EA6"/>
    </g>
    <path id="Вычитание_7" data-name="Вычитание 7" d="M20043.879,13133.076h0l-.006,0a39.189,39.189,0,0,1-2.932-3.862c-1.342-2.02-2.939-4.913-2.939-7.23v-.009a5.926,5.926,0,0,1,5.869-5.969h.012a5.787,5.787,0,0,1,4.152,1.753,5.969,5.969,0,0,1,1.717,4.225c0,2.315-1.6,5.21-2.937,7.23a39.146,39.146,0,0,1-2.932,3.862l0,0Zm0-13.7a2.563,2.563,0,1,0,2.518,2.565A2.546,2.546,0,0,0,20043.879,13119.38Z" transform="translate(-40269 -26229)" fill="#fff"/>
  </g>
</svg>
