<svg xmlns="http://www.w3.org/2000/svg" width="32" height="32" viewBox="0 0 32 32">
  <g id="Сгруппировать_28373" data-name="Сгруппировать 28373" transform="translate(-640 -3568.516)">
    <path id="Контур_3498" data-name="Контур 3498" d="M-3.742,0a16,16,0,0,0-16,16,16,16,0,0,0,16,16,16,16,0,0,0,16-16,16,16,0,0,0-16-16" transform="translate(659.742 3568.516)" fill="#186EA6"/>
    <path id="Контур_3499" data-name="Контур 3499" d="M-3.238-2.387H-15.629a.7.7,0,0,1-.7-.7v-8.255a.7.7,0,0,1,.7-.7H-3.238a.7.7,0,0,1,.7.7v8.258a.7.7,0,0,1-.7.7m-4.483-4.1h0L-5.7-4.61a.48.48,0,0,0,.321.126.473.473,0,0,0,.471-.475A.47.47,0,0,0-5.057-5.3L-7.051-7.158l2-2a.473.473,0,0,0,.021-.669.473.473,0,0,0-.669-.021l-.02.02L-9.1-6.45a.465.465,0,0,1-.327.131.468.468,0,0,1-.331-.131l-3.4-3.4a.473.473,0,0,0-.669-.019.473.473,0,0,0-.019.669l.02.02,2,2L-13.829-5.3a.474.474,0,0,0-.026.668.467.467,0,0,0,.347.152.48.48,0,0,0,.321-.126L-11.145-6.5l.722.722a1.411,1.411,0,0,0,1.995,0l.707-.707Z" transform="translate(665.434 3591.731)" fill="#fff"/>
  </g>
</svg>
