<svg xmlns="http://www.w3.org/2000/svg" width="32" height="32" viewBox="0 0 32 32">
  <g id="Сгруппировать_28376" data-name="Сгруппировать 28376" transform="translate(-827 -6619)">
    <g id="Сгруппировать_28374" data-name="Сгруппировать 28374" transform="translate(827 6619)">
      <path id="Контур_11745" data-name="Контур 11745" d="M-3.936,0a16,16,0,0,0-16,16,16,16,0,0,0,16,16,16,16,0,0,0,16-16,16,16,0,0,0-16-16" transform="translate(19.936)" fill="#186EA6"/>
    </g>
    <g id="Сгруппировать_28375" data-name="Сгруппировать 28375" transform="translate(836.707 6628.703)">
      <path id="Контур_11746" data-name="Контур 11746" d="M-3.172-2.4h0A1.04,1.04,0,0,1-2.678-1.29,2.689,2.689,0,0,1-6.263.981a12.437,12.437,0,0,1-5.407-3.458,12.645,12.645,0,0,1-3.441-5.434,2.673,2.673,0,0,1,2.23-3.582A1.043,1.043,0,0,1-11.773-11l1.5,2.066.008.009c.456.669-.534,1.544-.95,2.016l-.008.008c-.013.014.079.073.079.073l.027.038A13.433,13.433,0,0,0-9.384-4.783c.15.151,2.065,1.886,2.118,1.834l.008-.008c.475-.418,1.346-1.408,2.017-.95l.01.008Z" transform="translate(15.227 11.515)" fill="#fff"/>
    </g>
  </g>
</svg>
