<svg id="Сгруппировать_28393" data-name="Сгруппировать 28393" xmlns="http://www.w3.org/2000/svg" width="32" height="31.999" viewBox="0 0 32 31.999">
  <path id="Контур_3149" data-name="Контур 3149" d="M7.5,14.991a16,16,0,0,0,16-16,16,16,0,0,0-16-16,16,16,0,0,0-16,16,16,16,0,0,0,16,16" transform="translate(8.504 17.008)" fill="#0096F3"/>
  <path id="Контур_3150" data-name="Контур 3150" d="M1.651,3.234-2.073,2.018a.484.484,0,0,1-.3-.59c.03-.084.09-.154.265-.281.826-.575,15.27-5.766,15.27-5.766a1.228,1.228,0,0,1,.649-.046.35.35,0,0,1,.24.26,1.194,1.194,0,0,1,.032.328c0,.1-.014.186-.022.324C13.972-2.33,11.341,8.262,11.341,8.262a.853.853,0,0,1-.723.64,1.034,1.034,0,0,1-.754-.292C8.755,7.658,4.928,5.081,4.083,4.52a.171.171,0,0,1-.069-.113.211.211,0,0,1,.054-.135s6.665-5.923,6.841-6.545c.015-.049-.037-.073-.106-.051-.443.162-8.116,5.007-8.963,5.543a.393.393,0,0,1-.188.015" transform="translate(8.678 14.159)" fill="#fff"/>
</svg>
