<svg xmlns="http://www.w3.org/2000/svg" width="48" height="48" viewBox="0 0 48 48">
  <g id="Сгруппировать_4478" data-name="Сгруппировать 4478" transform="translate(-341.979 -3227.978)">
    <g id="Icon" transform="translate(341.979 3227.978)">
      <path id="Контур_1330" data-name="Контур 1330" d="M26,2A24,24,0,1,0,50,26,24,24,0,0,0,26,2Z" transform="translate(-2 -2)" fill="#94c245"/>
      <path id="WA_Logo" data-name="WA Logo" d="M1.684,17.822a11.884,11.884,0,1,1,10.3,5.952h-.006A11.921,11.921,0,0,1,6.3,22.328L0,23.98Zm5.267,2.569a9.879,9.879,0,0,0,5.026,1.377h.006a9.881,9.881,0,1,0-8.369-4.631l.236.376-1,3.645,3.74-.982Zm6.97-2.969a17.081,17.081,0,0,1-1.693-.625,13.231,13.231,0,0,1-5.071-4.483A5.781,5.781,0,0,1,5.946,9.243,3.318,3.318,0,0,1,6.983,6.766a1.093,1.093,0,0,1,.793-.374c.2,0,.4,0,.569.013h.062c.174,0,.389-.006.6.507.249.595.844,2.058.917,2.206a.544.544,0,0,1,.024.52,1.9,1.9,0,0,1-.3.494c-.148.174-.311.389-.445.522-.148.146-.305.309-.129.606a8.87,8.87,0,0,0,1.65,2.058,8.152,8.152,0,0,0,2.389,1.474c.3.148.468.125.644-.073s.741-.87.939-1.164.4-.249.668-.15,1.733.818,2.03.967.494.223.567.348a2.462,2.462,0,0,1-.172,1.409,3.051,3.051,0,0,1-2,1.413,4.781,4.781,0,0,1-.717.057A3.789,3.789,0,0,1,13.921,17.422Z" transform="translate(12.067 12.085)" fill="#fff"/>
    </g>
  </g>
</svg>
